<svg width="48" height="48" fill="none" xmlns="http://www.w3.org/2000/svg"><g clip-path="url(#clip0)"><path d="M24.008 48c-13.443 0-17.065-.68-20.196-3.812C.664 41.041 0 37.435 0 24.008 0 10.565.68 6.958 3.812 3.812 6.943.68 10.565 0 24.008 0 37.45 0 41.073.68 44.204 3.812c3.148 3.147 3.812 6.753 3.812 20.196 0 13.443-.664 17.033-3.812 20.196C41.057 47.32 37.435 48 24.008 48z" fill="#000"/><path d="M33.418 23.976c-.917 0-1.518-.6-1.518-1.502 0-.87.6-1.471 1.518-1.471h2.388v2.973h-2.388zm4.397-4.697H33.18c-1.961 0-3.306 1.281-3.306 3.131 0 1.456.839 2.563 2.167 2.958l-2.53 3.843h2.23l2.277-3.495h1.787v3.495h2.009V19.28zm-25.052 2.594v-2.99h3.89v8.494h-4.886c.522-.902.996-3.021.996-5.504zm5.947-4.919h-7.94v4.998c0 2.546-.442 4.539-1.043 5.425h-.95v4.539h1.962v-2.689h7.433v2.689h1.961v-4.54H18.71V16.955zm5.994 10.565l-.174-.11 2.309-8.13h-4.681l-.507 1.803 2.72-.016-1.77 6.2c-.317 1.123.442 2.182 1.692 2.182.395 0 .774-.095 1.202-.363l3.194-2.167-.965-1.44-3.02 2.04zm1.36-10.106c.996 0 1.407-.364 1.407-1.25 0-.917-.427-1.28-1.407-1.28-.965 0-1.408.363-1.408 1.28 0 .87.412 1.25 1.408 1.25z" fill="#fff"/></g><defs><clipPath id="clip0"><path fill="#fff" d="M0 0h48v48H0z"/></clipPath></defs></svg>